<mxfile host="app.diagrams.net" modified="2023-12-04T11:26:51.912Z" agent="Mozilla/5.0 (Windows NT 10.0; Win64; x64) AppleWebKit/537.36 (KHTML, like Gecko) Chrome/103.0.0.0 Safari/537.36" etag="otXy78PPQZZQpZtuPxg8" version="22.1.5" type="github">
  <diagram name="第 1 页" id="B7O1nAxMrkEBjLSxpnxv">
    <mxGraphModel dx="2901" dy="2237" grid="1" gridSize="10" guides="1" tooltips="1" connect="1" arrows="1" fold="1" page="1" pageScale="1" pageWidth="827" pageHeight="1169" math="0" shadow="0">
      <root>
        <mxCell id="0" />
        <mxCell id="1" parent="0" />
        <mxCell id="wEYbsbMaBEm8X58R1rZi-355" value="CS-YLQEIC-0202-A01-R6920C-IC-001" style="rounded=1;whiteSpace=wrap;html=1;fillColor=#e1d5e7;strokeColor=#9673a6;" vertex="1" parent="1">
          <mxGeometry x="50" y="170" width="390" height="90" as="geometry" />
        </mxCell>
        <mxCell id="wEYbsbMaBEm8X58R1rZi-275" value="CS-YLQEIC-0202-A01-R6920C-IC-001" style="rounded=1;whiteSpace=wrap;html=1;fillColor=#e1d5e7;strokeColor=#9673a6;" vertex="1" parent="1">
          <mxGeometry x="-400" y="170" width="390" height="90" as="geometry" />
        </mxCell>
        <mxCell id="wEYbsbMaBEm8X58R1rZi-284" value="Smart Switch1" style="rounded=1;whiteSpace=wrap;html=1;" vertex="1" parent="1">
          <mxGeometry x="-240" y="-30" width="210" height="60" as="geometry" />
        </mxCell>
        <mxCell id="wEYbsbMaBEm8X58R1rZi-285" value="Smart Switch2" style="rounded=1;whiteSpace=wrap;html=1;" vertex="1" parent="1">
          <mxGeometry x="60" y="-30" width="220" height="60" as="geometry" />
        </mxCell>
        <mxCell id="wEYbsbMaBEm8X58R1rZi-287" value="Eth100GE1" style="text;html=1;align=center;verticalAlign=middle;resizable=0;points=[];autosize=1;strokeColor=#6c8ebf;fillColor=#dae8fc;" vertex="1" parent="1">
          <mxGeometry x="-225" y="5" width="90" height="30" as="geometry" />
        </mxCell>
        <mxCell id="wEYbsbMaBEm8X58R1rZi-288" value="H1/29" style="text;html=1;align=center;verticalAlign=middle;resizable=0;points=[];autosize=1;strokeColor=#6c8ebf;fillColor=#dae8fc;" vertex="1" parent="1">
          <mxGeometry x="-350" y="160" width="60" height="30" as="geometry" />
        </mxCell>
        <mxCell id="wEYbsbMaBEm8X58R1rZi-289" value="Eth100GE1" style="text;html=1;align=center;verticalAlign=middle;resizable=0;points=[];autosize=1;strokeColor=#6c8ebf;fillColor=#dae8fc;" vertex="1" parent="1">
          <mxGeometry x="75" y="5" width="90" height="30" as="geometry" />
        </mxCell>
        <mxCell id="wEYbsbMaBEm8X58R1rZi-291" value="Eth100GE2" style="text;html=1;align=center;verticalAlign=middle;resizable=0;points=[];autosize=1;strokeColor=#6c8ebf;fillColor=#dae8fc;" vertex="1" parent="1">
          <mxGeometry x="-130" y="5" width="90" height="30" as="geometry" />
        </mxCell>
        <mxCell id="wEYbsbMaBEm8X58R1rZi-292" value="H1/30" style="text;html=1;align=center;verticalAlign=middle;resizable=0;points=[];autosize=1;strokeColor=#6c8ebf;fillColor=#dae8fc;" vertex="1" parent="1">
          <mxGeometry x="-110" y="160" width="60" height="30" as="geometry" />
        </mxCell>
        <mxCell id="wEYbsbMaBEm8X58R1rZi-294" value="H1/29" style="text;html=1;align=center;verticalAlign=middle;resizable=0;points=[];autosize=1;strokeColor=#6c8ebf;fillColor=#dae8fc;" vertex="1" parent="1">
          <mxGeometry x="100" y="160" width="60" height="30" as="geometry" />
        </mxCell>
        <mxCell id="wEYbsbMaBEm8X58R1rZi-295" value="H1/30" style="text;html=1;align=center;verticalAlign=middle;resizable=0;points=[];autosize=1;strokeColor=#6c8ebf;fillColor=#dae8fc;" vertex="1" parent="1">
          <mxGeometry x="340" y="160" width="60" height="30" as="geometry" />
        </mxCell>
        <mxCell id="wEYbsbMaBEm8X58R1rZi-297" value="" style="endArrow=none;html=1;rounded=0;exitX=0.44;exitY=0.96;exitDx=0;exitDy=0;exitPerimeter=0;fillColor=#dae8fc;strokeColor=#6c8ebf;" edge="1" parent="1" source="wEYbsbMaBEm8X58R1rZi-287" target="wEYbsbMaBEm8X58R1rZi-288">
          <mxGeometry width="50" height="50" relative="1" as="geometry">
            <mxPoint x="-333.55999999999995" y="370.20000000000005" as="sourcePoint" />
            <mxPoint x="-339.44000000000005" y="269.5999999999999" as="targetPoint" />
          </mxGeometry>
        </mxCell>
        <mxCell id="wEYbsbMaBEm8X58R1rZi-298" value="" style="endArrow=none;html=1;rounded=0;entryX=0.647;entryY=0.06;entryDx=0;entryDy=0;entryPerimeter=0;fillColor=#dae8fc;strokeColor=#6c8ebf;" edge="1" parent="1" source="wEYbsbMaBEm8X58R1rZi-289" target="wEYbsbMaBEm8X58R1rZi-292">
          <mxGeometry width="50" height="50" relative="1" as="geometry">
            <mxPoint x="-294.79999999999995" y="59.200000000000045" as="sourcePoint" />
            <mxPoint x="-318.0733944954129" y="180" as="targetPoint" />
          </mxGeometry>
        </mxCell>
        <mxCell id="wEYbsbMaBEm8X58R1rZi-300" value="" style="endArrow=none;html=1;rounded=0;entryX=0.503;entryY=-0.04;entryDx=0;entryDy=0;entryPerimeter=0;fillColor=#dae8fc;strokeColor=#6c8ebf;" edge="1" parent="1" source="wEYbsbMaBEm8X58R1rZi-291" target="wEYbsbMaBEm8X58R1rZi-294">
          <mxGeometry width="50" height="50" relative="1" as="geometry">
            <mxPoint x="-5.378810975609667" y="60" as="sourcePoint" />
            <mxPoint x="-191.76999999999998" y="181.20000000000005" as="targetPoint" />
          </mxGeometry>
        </mxCell>
        <mxCell id="wEYbsbMaBEm8X58R1rZi-301" value="" style="endArrow=none;html=1;rounded=0;exitX=0.75;exitY=1;exitDx=0;exitDy=0;fillColor=#dae8fc;strokeColor=#6c8ebf;" edge="1" parent="1" source="wEYbsbMaBEm8X58R1rZi-285" target="wEYbsbMaBEm8X58R1rZi-295">
          <mxGeometry width="50" height="50" relative="1" as="geometry">
            <mxPoint x="-167.78390461997014" y="60" as="sourcePoint" />
            <mxPoint x="170.24" y="184.20000000000005" as="targetPoint" />
          </mxGeometry>
        </mxCell>
        <mxCell id="wEYbsbMaBEm8X58R1rZi-309" value="Eth100GE2" style="text;html=1;align=center;verticalAlign=middle;resizable=0;points=[];autosize=1;strokeColor=#6c8ebf;fillColor=#dae8fc;" vertex="1" parent="1">
          <mxGeometry x="185" y="5" width="90" height="30" as="geometry" />
        </mxCell>
        <mxCell id="wEYbsbMaBEm8X58R1rZi-311" value="1*100" style="text;html=1;align=center;verticalAlign=middle;resizable=0;points=[];autosize=1;strokeColor=none;fillColor=none;" vertex="1" parent="1">
          <mxGeometry x="-310" y="100" width="50" height="20" as="geometry" />
        </mxCell>
        <mxCell id="wEYbsbMaBEm8X58R1rZi-345" value="" style="shape=curlyBracket;whiteSpace=wrap;html=1;rounded=1;flipH=1;fontSize=9;rotation=-90;" vertex="1" parent="1">
          <mxGeometry x="-640" y="-310" width="20" height="380" as="geometry" />
        </mxCell>
        <mxCell id="wEYbsbMaBEm8X58R1rZi-346" value="1*100" style="text;html=1;align=center;verticalAlign=middle;resizable=0;points=[];autosize=1;strokeColor=none;fillColor=none;" vertex="1" parent="1">
          <mxGeometry x="-120" y="110" width="50" height="20" as="geometry" />
        </mxCell>
        <mxCell id="wEYbsbMaBEm8X58R1rZi-347" value="1*100" style="text;html=1;align=center;verticalAlign=middle;resizable=0;points=[];autosize=1;strokeColor=none;fillColor=none;" vertex="1" parent="1">
          <mxGeometry x="24" y="130" width="50" height="20" as="geometry" />
        </mxCell>
        <mxCell id="wEYbsbMaBEm8X58R1rZi-348" value="1*100" style="text;html=1;align=center;verticalAlign=middle;resizable=0;points=[];autosize=1;strokeColor=none;fillColor=none;" vertex="1" parent="1">
          <mxGeometry x="225" y="110" width="50" height="20" as="geometry" />
        </mxCell>
        <mxCell id="wEYbsbMaBEm8X58R1rZi-356" value="&lt;p style=&quot;line-height: normal; margin: 0pt 0in; text-indent: 0in; text-align: center; direction: ltr; unicode-bidi: embed; word-break: normal; font-size: 10px;&quot;&gt;&lt;font style=&quot;font-size: 10px;&quot;&gt;&lt;span style=&quot;font-family: &amp;quot;helvetica neue medium&amp;quot;; font-variant: normal; color: white; text-transform: none; letter-spacing: 0pt; font-weight: normal; font-style: normal; vertical-align: baseline; font-size: 10px;&quot;&gt;Nat&lt;/span&gt;&lt;span style=&quot;font-family: &amp;quot;helvetica neue medium&amp;quot;; font-variant: normal; color: white; text-transform: none; letter-spacing: 0pt; font-weight: normal; font-style: normal; vertical-align: baseline; font-size: 10px;&quot;&gt; 内网&lt;/span&gt;&lt;span style=&quot;font-family: &amp;quot;helvetica neue medium&amp;quot;; font-variant: normal; color: white; text-transform: none; letter-spacing: 0pt; font-weight: normal; font-style: normal; vertical-align: baseline; font-size: 10px;&quot;&gt;VIP:&lt;/span&gt;&lt;span style=&quot;font-family: &amp;quot;helvetica neue medium&amp;quot;; font-variant: normal; color: white; text-transform: none; letter-spacing: 0pt; font-weight: normal; font-style: normal; vertical-align: baseline; font-size: 10px;&quot;&gt; &lt;/span&gt;&lt;span style=&quot;font-family: &amp;quot;helvetica neue medium&amp;quot;; font-variant: normal; color: white; text-transform: none; letter-spacing: 0pt; font-weight: normal; font-style: normal; vertical-align: baseline; font-size: 10px;&quot;&gt;100.100.9.2/24&lt;/span&gt;&lt;span style=&quot;font-family: &amp;quot;helvetica neue medium&amp;quot;; font-variant: normal; color: white; text-transform: none; letter-spacing: 0pt; font-weight: normal; font-style: normal; vertical-align: baseline; font-size: 10px;&quot;&gt;&amp;nbsp; &lt;/span&gt;&lt;span style=&quot;font-family: &amp;quot;helvetica neue medium&amp;quot;; font-variant: normal; color: white; text-transform: none; letter-spacing: 0pt; font-weight: normal; font-style: normal; vertical-align: baseline; font-size: 10px;&quot;&gt;vlan&lt;/span&gt;&lt;span style=&quot;font-family: &amp;quot;helvetica neue medium&amp;quot;; font-variant: normal; color: white; text-transform: none; letter-spacing: 0pt; font-weight: normal; font-style: normal; vertical-align: baseline; font-size: 10px;&quot;&gt;(100）&lt;/span&gt;&lt;/font&gt;&lt;/p&gt;&lt;font style=&quot;font-size: 10px;&quot;&gt;&lt;br style=&quot;font-size: 10px;&quot;&gt;&lt;/font&gt;&lt;p style=&quot;line-height: normal; margin: 0pt 0in; text-indent: 0in; text-align: center; direction: ltr; unicode-bidi: embed; word-break: normal; font-size: 10px;&quot;&gt;&lt;font style=&quot;font-size: 10px;&quot;&gt;&lt;span style=&quot;font-family: &amp;quot;helvetica neue medium&amp;quot;; font-variant: normal; color: white; text-transform: none; letter-spacing: 0pt; font-weight: normal; font-style: normal; vertical-align: baseline; font-size: 10px;&quot;&gt;Vpn&lt;/span&gt;&lt;span style=&quot;font-family: &amp;quot;helvetica neue medium&amp;quot;; font-variant: normal; color: white; text-transform: none; letter-spacing: 0pt; font-weight: normal; font-style: normal; vertical-align: baseline; font-size: 10px;&quot;&gt; 内网&lt;/span&gt;&lt;span style=&quot;font-family: &amp;quot;helvetica neue medium&amp;quot;; font-variant: normal; color: white; text-transform: none; letter-spacing: 0pt; font-weight: normal; font-style: normal; vertical-align: baseline; font-size: 10px;&quot;&gt;VIP:&lt;/span&gt;&lt;span style=&quot;font-family: &amp;quot;helvetica neue medium&amp;quot;; font-variant: normal; color: white; text-transform: none; letter-spacing: 0pt; font-weight: normal; font-style: normal; vertical-align: baseline; font-size: 10px;&quot;&gt; &lt;/span&gt;&lt;span style=&quot;font-family: &amp;quot;helvetica neue medium&amp;quot;; font-variant: normal; color: white; text-transform: none; letter-spacing: 0pt; font-weight: normal; font-style: normal; vertical-align: baseline; font-size: 10px;&quot;&gt;100.100.9.3/24&lt;/span&gt;&lt;span style=&quot;font-family: &amp;quot;helvetica neue medium&amp;quot;; font-variant: normal; color: white; text-transform: none; letter-spacing: 0pt; font-weight: normal; font-style: normal; vertical-align: baseline; font-size: 10px;&quot;&gt; &lt;/span&gt;&lt;span style=&quot;font-family: &amp;quot;helvetica neue medium&amp;quot;; font-variant: normal; color: white; text-transform: none; letter-spacing: 0pt; font-weight: normal; font-style: normal; vertical-align: baseline; font-size: 10px;&quot;&gt;vlan&lt;/span&gt;&lt;span style=&quot;font-family: &amp;quot;helvetica neue medium&amp;quot;; font-variant: normal; color: white; text-transform: none; letter-spacing: 0pt; font-weight: normal; font-style: normal; vertical-align: baseline; font-size: 10px;&quot;&gt;(100)&lt;/span&gt;&lt;/font&gt;&lt;/p&gt;&lt;font style=&quot;font-size: 10px;&quot;&gt;&lt;br style=&quot;font-size: 10px;&quot;&gt;&lt;/font&gt;&lt;p style=&quot;line-height: normal; margin: 0pt 0in; text-indent: 0in; text-align: center; direction: ltr; unicode-bidi: embed; word-break: normal; font-size: 10px;&quot;&gt;&lt;font style=&quot;font-size: 10px;&quot;&gt;&lt;span style=&quot;font-family: &amp;quot;helvetica neue medium&amp;quot;; font-variant: normal; color: white; text-transform: none; letter-spacing: 0pt; font-weight: normal; font-style: normal; vertical-align: baseline; font-size: 10px;&quot;&gt;Nat&lt;/span&gt;&lt;span style=&quot;font-family: &amp;quot;helvetica neue medium&amp;quot;; font-variant: normal; color: white; text-transform: none; letter-spacing: 0pt; font-weight: normal; font-style: normal; vertical-align: baseline; font-size: 10px;&quot;&gt; 公网&lt;/span&gt;&lt;span style=&quot;font-family: &amp;quot;helvetica neue medium&amp;quot;; font-variant: normal; color: white; text-transform: none; letter-spacing: 0pt; font-weight: normal; font-style: normal; vertical-align: baseline; font-size: 10px;&quot;&gt;VIP:&lt;/span&gt;&lt;span style=&quot;font-family: &amp;quot;helvetica neue medium&amp;quot;; font-variant: normal; color: white; text-transform: none; letter-spacing: 0pt; font-weight: normal; font-style: normal; vertical-align: baseline; font-size: 10px;&quot;&gt; &lt;/span&gt;&lt;span style=&quot;font-family: &amp;quot;helvetica neue medium&amp;quot;; font-variant: normal; color: white; text-transform: none; letter-spacing: 0pt; font-weight: normal; font-style: normal; vertical-align: baseline; font-size: 10px;&quot;&gt;2&lt;/span&gt;&lt;span style=&quot;font-family: &amp;quot;helvetica neue medium&amp;quot;; font-variant: normal; color: white; text-transform: none; letter-spacing: 0pt; font-weight: normal; font-style: normal; vertical-align: baseline; font-size: 10px;&quot;&gt;00.200.9.2/24&lt;/span&gt;&lt;span style=&quot;font-family: &amp;quot;helvetica neue medium&amp;quot;; font-variant: normal; color: white; text-transform: none; letter-spacing: 0pt; font-weight: normal; font-style: normal; vertical-align: baseline; font-size: 10px;&quot;&gt; &lt;/span&gt;&lt;span style=&quot;font-family: &amp;quot;helvetica neue medium&amp;quot;; font-variant: normal; color: white; text-transform: none; letter-spacing: 0pt; font-weight: normal; font-style: normal; vertical-align: baseline; font-size: 10px;&quot;&gt;vlan&lt;/span&gt;&lt;span style=&quot;font-family: &amp;quot;helvetica neue medium&amp;quot;; font-variant: normal; color: white; text-transform: none; letter-spacing: 0pt; font-weight: normal; font-style: normal; vertical-align: baseline; font-size: 10px;&quot;&gt;(20)&lt;/span&gt;&lt;/font&gt;&lt;/p&gt;&lt;font style=&quot;font-size: 10px;&quot;&gt;&lt;br style=&quot;font-size: 10px;&quot;&gt;&lt;/font&gt;&lt;p style=&quot;line-height: normal; margin: 0pt 0in; text-indent: 0in; text-align: center; direction: ltr; unicode-bidi: embed; word-break: normal; font-size: 10px;&quot;&gt;&lt;font style=&quot;font-size: 10px;&quot;&gt;&lt;span style=&quot;font-family: &amp;quot;helvetica neue medium&amp;quot;; font-variant: normal; color: white; text-transform: none; letter-spacing: 0pt; font-weight: normal; font-style: normal; vertical-align: baseline; font-size: 10px;&quot;&gt;SMW1&amp;amp;2&lt;/span&gt;&lt;span style=&quot;font-family: &amp;quot;helvetica neue medium&amp;quot;; font-variant: normal; color: white; text-transform: none; letter-spacing: 0pt; font-weight: normal; font-style: normal; vertical-align: baseline; font-size: 10px;&quot;&gt; &lt;/span&gt;&lt;span style=&quot;font-family: &amp;quot;helvetica neue medium&amp;quot;; font-variant: normal; color: white; text-transform: none; letter-spacing: 0pt; font-weight: normal; font-style: normal; vertical-align: baseline; font-size: 10px;&quot;&gt;VPN&lt;/span&gt;&lt;span style=&quot;font-family: &amp;quot;helvetica neue medium&amp;quot;; font-variant: normal; color: white; text-transform: none; letter-spacing: 0pt; font-weight: normal; font-style: normal; vertical-align: baseline; font-size: 10px;&quot;&gt;公网&lt;/span&gt;&lt;span style=&quot;font-family: &amp;quot;helvetica neue medium&amp;quot;; font-variant: normal; color: white; text-transform: none; letter-spacing: 0pt; font-weight: normal; font-style: normal; vertical-align: baseline; font-size: 10px;&quot;&gt;VIP&lt;/span&gt;&lt;span style=&quot;font-family: &amp;quot;helvetica neue medium&amp;quot;; font-variant: normal; color: white; text-transform: none; letter-spacing: 0pt; font-weight: normal; font-style: normal; vertical-align: baseline; font-size: 10px;&quot;&gt;：&lt;/span&gt;&lt;span style=&quot;font-family: &amp;quot;helvetica neue medium&amp;quot;; font-variant: normal; color: white; text-transform: none; letter-spacing: 0pt; font-weight: normal; font-style: normal; vertical-align: baseline; font-size: 10px;&quot;&gt; 2&lt;/span&gt;&lt;span style=&quot;font-family: &amp;quot;helvetica neue medium&amp;quot;; font-variant: normal; color: white; text-transform: none; letter-spacing: 0pt; font-weight: normal; font-style: normal; vertical-align: baseline; font-size: 10px;&quot;&gt;00.200.9.3/24&lt;/span&gt;&lt;span style=&quot;font-family: &amp;quot;helvetica neue medium&amp;quot;; font-variant: normal; color: white; text-transform: none; letter-spacing: 0pt; font-weight: normal; font-style: normal; vertical-align: baseline; font-size: 10px;&quot;&gt; &lt;/span&gt;&lt;span style=&quot;font-family: &amp;quot;helvetica neue medium&amp;quot;; font-variant: normal; color: white; text-transform: none; letter-spacing: 0pt; font-weight: normal; font-style: normal; vertical-align: baseline; font-size: 10px;&quot;&gt;vlan20&lt;/span&gt;&lt;/font&gt;&lt;/p&gt;" style="text;whiteSpace=wrap;html=1;fillColor=#0050ef;fontColor=#ffffff;strokeColor=#001DBC;fontSize=10;spacing=0;" vertex="1" parent="1">
          <mxGeometry x="-780" y="-300" width="300" height="130" as="geometry" />
        </mxCell>
      </root>
    </mxGraphModel>
  </diagram>
</mxfile>
